<svg xmlns="http://www.w3.org/2000/svg" viewBox="0 0 197.988 198">
  <defs>
    <style>
      .cls-1 {
        fill: #20C4F4;
      }
    </style>
  </defs>
  <g id="telephone-handle-silhouette" transform="translate(-0.01)">
    <path id="Path_90" data-name="Path 90" class="cls-1" d="M197.577,153.413q-.84-2.531-10.687-7.452-2.667-1.55-7.59-4.219t-8.93-4.923q-4.013-2.25-7.524-4.357-.561-.422-3.515-2.463a39.523,39.523,0,0,0-4.994-3.024,9.207,9.207,0,0,0-4.008-.983q-2.812,0-7.028,4.007a68.468,68.468,0,0,0-7.733,8.721,84.783,84.783,0,0,1-7.45,8.718q-3.939,4.01-6.469,4.008a9.565,9.565,0,0,1-3.166-.7c-1.264-.468-2.225-.87-2.885-1.193s-1.777-.985-3.371-1.972-2.486-1.524-2.673-1.618a147.774,147.774,0,0,1-33.046-24.467A147.7,147.7,0,0,1,52.04,88.447q-.14-.281-1.617-2.672T48.453,82.4a30.475,30.475,0,0,1-1.194-2.882,9.515,9.515,0,0,1-.7-3.164q0-2.53,4.008-6.469a84.692,84.692,0,0,1,8.718-7.451A68.438,68.438,0,0,0,68,54.7q4.007-4.219,4.007-7.03a9.182,9.182,0,0,0-.984-4.008A39.091,39.091,0,0,0,68,38.669q-2.041-2.953-2.462-3.516-2.107-3.513-4.358-7.522T56.257,18.7q-2.671-4.919-4.218-7.592Q47.12,1.267,44.588.423A7.875,7.875,0,0,0,41.635,0a46.327,46.327,0,0,0-9.914,1.407A55.687,55.687,0,0,0,22.088,4.36Q15.056,7.311,7.181,21.513.01,34.729.01,47.668A54.306,54.306,0,0,0,.5,55.051a60.67,60.67,0,0,0,1.759,8.087q1.265,4.5,2.038,6.679t2.882,7.8q2.107,5.625,2.531,6.89a127.373,127.373,0,0,0,11.671,24.609q11.1,18,30.3,37.2t37.2,30.3a127.567,127.567,0,0,0,24.61,11.672q1.266.42,6.889,2.532t7.8,2.882q2.179.774,6.678,2.042a61.205,61.205,0,0,0,8.087,1.761,55.012,55.012,0,0,0,7.383.491q12.935,0,26.156-7.172,14.2-7.873,17.152-14.909a55.383,55.383,0,0,0,2.953-9.632A46.227,46.227,0,0,0,198,156.375,7.841,7.841,0,0,0,197.577,153.413Z" transform="translate(0 0)"/>
  </g>
</svg>
