<svg xmlns="http://www.w3.org/2000/svg" viewBox="0 0 162 198">
  <defs>
    <style>
      .cls-1 {
        fill: #20C4F4;
      }
    </style>
  </defs>
  <g id="baseline-cake-24px" transform="translate(-24.75)">
    <path id="Path_92" data-name="Path 92" class="cls-1" d="M84,54a18,18,0,0,0,18-18,17.131,17.131,0,0,0-2.61-9.27L84,0,68.61,26.73A17.131,17.131,0,0,0,66,36,18.053,18.053,0,0,0,84,54Zm41.4,89.91-9.63-9.63-9.72,9.63c-11.7,11.7-32.22,11.79-44.01,0l-9.63-9.63-9.81,9.63A30.912,30.912,0,0,1,20.64,153,31.27,31.27,0,0,1,3,147.51V189a9.026,9.026,0,0,0,9,9H156a9.026,9.026,0,0,0,9-9V147.51A31.27,31.27,0,0,1,147.36,153,30.912,30.912,0,0,1,125.4,143.91ZM138,81H93V63H75V81H30A26.964,26.964,0,0,0,3,108v13.86A17.669,17.669,0,0,0,20.64,139.5a17.273,17.273,0,0,0,12.42-5.13L52.32,115.2l19.17,19.17a18.051,18.051,0,0,0,24.93,0l19.26-19.17,19.17,19.17a17.425,17.425,0,0,0,12.42,5.13,17.669,17.669,0,0,0,17.64-17.64V108A26.83,26.83,0,0,0,138,81Z" transform="translate(21.75)"/>
  </g>
</svg>
