<svg xmlns="http://www.w3.org/2000/svg" xmlns:xlink="http://www.w3.org/1999/xlink" viewBox="0 0 200 200">
  <defs>
    <style>
      .cls-1 {
        clip-path: url(#clip-ic_);
      }

      .cls-2 {
        fill: #7e7e7e;
      }

      .cls-3 {
        fill: #fff;
      }
    </style>
    <clipPath id="clip-ic_">
      <rect width="200" height="200"/>
    </clipPath>
  </defs>
  <g id="ic_" class="cls-1">
    <rect class="cls-3" width="200" height="200"/>
    <g id="padlock-unlock" transform="translate(26 1)">
      <path id="Path_85" data-name="Path 85" class="cls-2" d="M199.708,102.609A11.932,11.932,0,0,0,190.941,99H96.067V57.751a31.794,31.794,0,0,1,9.669-23.333,32.989,32.989,0,0,1,46.664,0,31.793,31.793,0,0,1,9.669,23.333A8.362,8.362,0,0,0,170.316,66h8.254a8.362,8.362,0,0,0,8.248-8.249,55.621,55.621,0,0,0-16.95-40.8A55.617,55.617,0,0,0,129.069,0a55.62,55.62,0,0,0-40.8,16.951,55.616,55.616,0,0,0-16.951,40.8V99H67.193a12.322,12.322,0,0,0-12.375,12.374v74.251A12.321,12.321,0,0,0,67.193,198H190.941a12.321,12.321,0,0,0,12.376-12.375V111.374A11.924,11.924,0,0,0,199.708,102.609Z" transform="translate(-54.818)"/>
    </g>
  </g>
</svg>
