<svg xmlns="http://www.w3.org/2000/svg" viewBox="0 0 198 151.27">
  <defs>
    <style>
      .cls-1 {
        fill: #20C4F4;
      }
    </style>
  </defs>
  <g id="open-book" transform="translate(0 -35.048)">
    <g id="Group_195" data-name="Group 195" transform="translate(0 35.048)">
      <g id="Group_194" data-name="Group 194" transform="translate(0 0)">
        <path id="Path_123" data-name="Path 123" class="cls-1" d="M41.9,35.049h-.017a6.983,6.983,0,0,0-4.964,2.057,7.055,7.055,0,0,0-2.085,5.029V148.378a7.109,7.109,0,0,0,7.094,7.083c16.492.039,44.123,3.477,63.184,23.424V67.7a6.79,6.79,0,0,0-.974-3.588C88.493,38.916,58.428,35.088,41.9,35.049Z" transform="translate(-11.611 -35.048)"/>
        <path id="Path_124" data-name="Path 124" class="cls-1" d="M227.029,148.378V42.133a7.071,7.071,0,0,0-7.049-7.085h-.017c-16.529.039-46.593,3.867-62.238,29.062a6.789,6.789,0,0,0-.974,3.588V178.885c19.062-19.947,46.692-23.385,63.184-23.424A7.109,7.109,0,0,0,227.029,148.378Z" transform="translate(-52.25 -35.048)"/>
        <path id="Path_125" data-name="Path 125" class="cls-1" d="M248.076,71.8h-5.137v88.828a18.127,18.127,0,0,1-18.067,18.083c-13.989.033-37.054,2.769-53.389,18.229,28.252-6.917,58.035-2.421,75.008,1.447a7.084,7.084,0,0,0,8.67-6.9V78.885A7.092,7.092,0,0,0,248.076,71.8Z" transform="translate(-57.16 -47.299)"/>
        <path id="Path_126" data-name="Path 126" class="cls-1" d="M12.221,160.629V71.8H7.084A7.093,7.093,0,0,0,0,78.885v112.6a7.084,7.084,0,0,0,8.67,6.9c16.973-3.869,46.757-8.365,75.008-1.447-16.335-15.46-39.4-18.195-53.389-18.228A18.126,18.126,0,0,1,12.221,160.629Z" transform="translate(0 -47.299)"/>
      </g>
    </g>
  </g>
</svg>
