<svg id="female" xmlns="http://www.w3.org/2000/svg" viewBox="0 0 196.078 198">
  <defs>
    <style>
      .cls-1, .cls-2 {
        stroke: none;
      }

      .cls-2 {
        fill: #707070;
      }
    </style>
  </defs>
  <g id="person" transform="translate(0 1.922)">
    <path id="Path_93" data-name="Path 93" d="M98.039,98.039A49.019,49.019,0,1,0,49.019,49.019,49.164,49.164,0,0,0,98.039,98.039Zm0,24.51C64.951,122.549,0,138.48,0,171.568v24.51H196.078v-24.51C196.078,138.48,131.127,122.549,98.039,122.549Z"/>
  </g>
  <g id="Subtraction_1" data-name="Subtraction 1" transform="translate(34.602 0)">
    <path class="cls-1" d="M 126.7747650146484 101.1756896972656 L 0.5212706327438354 101.1756896972656 C 0.5071517825126648 100.3191680908203 0.5000088214874268 99.45656585693359 0.5000088214874268 98.60472106933594 C 0.5000088214874268 91.93878936767578 0.9336588382720947 85.27478790283203 1.788892149925232 78.79780578613281 C 2.622125625610352 72.48942565917969 3.865358829498291 66.28435516357422 5.484092235565186 60.3549919128418 C 7.072808742523193 54.53677368164063 9.039142608642578 48.92442321777344 11.32847595214844 43.67387390136719 C 13.59535884857178 38.47605895996094 16.19740867614746 33.59022521972656 19.06230926513672 29.15217399597168 C 21.92507553100586 24.71677398681641 25.07462501525879 20.69062423706055 28.42349243164063 17.1855411529541 C 31.80019187927246 13.65179061889648 35.40826034545898 10.61750793457031 39.14742660522461 8.166974067687988 C 42.95082473754883 5.674824237823486 46.92924118041992 3.761440992355347 50.97216033935547 2.47999095916748 C 55.1164436340332 1.166174411773682 59.38129043579102 0.500007688999176 63.64829254150391 0.500007688999176 C 67.91517639160156 0.500007688999176 72.17996215820313 1.166174411773682 76.32419586181641 2.479974269866943 C 80.36676025390625 3.761257648468018 84.34512329101563 5.674641132354736 88.14882659912109 8.166991233825684 C 91.88739013671875 10.61682415008545 95.49539184570313 13.65112400054932 98.87258911132813 17.1855583190918 C 102.2213897705078 20.69039154052734 105.3709945678711 24.7165412902832 108.2339096069336 29.15215682983398 C 111.0994720458984 33.59157562255859 113.7015228271484 38.47740936279297 115.9677734375 43.67392349243164 C 118.2565383911133 48.92220687866211 120.2228088378906 54.53454208374023 121.8119583129883 60.35500717163086 C 123.4310073852539 66.28562164306641 124.6742553710938 72.49067687988281 125.5071792602539 78.79782104492188 C 126.3624267578125 85.27313995361328 126.7960586547852 91.93714141845703 126.7960586547852 98.60472106933594 C 126.7960586547852 99.45558166503906 126.7889099121094 100.3181533813477 126.7747650146484 101.1756896972656 Z"/>
    <path class="cls-2" d="M 126.2821655273438 100.6756896972656 C 126.2914047241211 99.98358917236328 126.2960586547852 99.29035186767578 126.2960586547852 98.60472106933594 C 126.2960586547852 91.95896148681641 125.8638610839844 85.31697082519531 125.011474609375 78.86327362060547 C 124.181510925293 72.57840728759766 122.942741394043 66.39562225341797 121.3296279907227 60.48669052124023 C 119.7467956542969 54.6894416809082 117.7886123657227 49.10004043579102 115.5094757080078 43.8737907409668 C 113.2539749145508 38.70195770263672 110.664794921875 33.84010696411133 107.8138275146484 29.42330741882324 C 104.9679946899414 25.01417350769043 101.8380889892578 21.01302528381348 98.51109313964844 17.53097343444824 C 95.16014099121094 14.02400779724121 91.58155822753906 11.01420783996582 87.87479400634766 8.585207939147949 C 84.10922241210938 6.117841243743896 80.17222595214844 4.22410774230957 76.173095703125 2.956607818603516 C 72.07778930664063 1.658307671546936 67.86384582519531 1.000007748603821 63.64829254150391 1.000007748603821 C 59.43262481689453 1.000007748603821 55.21860885620117 1.658307671546936 51.12324142456055 2.956624269485474 C 47.12377548217773 4.22429084777832 43.18672561645508 6.118024349212646 39.42149353027344 8.58515739440918 C 35.71409225463867 11.01487445831299 32.13544082641602 14.02469062805176 28.78500938415527 17.53095817565918 C 25.45792579650879 21.01324081420898 22.32807540893555 25.01440811157227 19.48237609863281 29.4233570098877 C 16.6320915222168 33.83877563476563 14.04290866851807 38.70060729980469 11.78679180145264 43.87372589111328 C 9.507075309753418 49.10224151611328 7.548809051513672 54.69165802001953 5.966442108154297 60.48667526245117 C 4.353625297546387 66.39437103271484 3.114875555038452 72.57717132568359 2.284592151641846 78.86325836181641 C 1.432208895683289 85.31862640380859 1.000008821487427 91.96060943603516 1.000008821487427 98.60472106933594 C 1.000008821487427 99.29099273681641 1.004659295082092 99.98424530029297 1.013872504234314 100.6756896972656 L 126.2821655273438 100.6756896972656 M 127.2658233642578 101.6756896972656 L 0.03022551350295544 101.6756896972656 C 0.0100255124270916 100.6481781005859 8.846028322295751e-06 99.61549377441406 8.846028322295751e-06 98.60472106933594 C 8.846028322295751e-06 91.91526031494141 0.4353255033493042 85.22924041748047 1.293192148208618 78.73236083984375 C 2.129458904266357 72.40099334716797 3.377208948135376 66.17395782470703 5.001742362976074 60.22330856323242 C 6.597225666046143 54.38029098510742 8.571725845336914 48.74542617797852 10.87014198303223 43.47404098510742 C 13.14712524414063 38.25307464599609 15.76182556152344 33.34307479858398 18.64222526550293 28.88100814819336 C 21.52277565002441 24.41805839538574 24.69200897216797 20.36730766296387 28.06197547912598 16.84014129638672 C 31.46457481384277 13.2792911529541 35.10194396972656 10.22044086456299 38.87335968017578 7.748774528503418 C 42.71457672119141 5.231841087341309 46.73457717895508 3.298624277114868 50.82109069824219 2.003357648849487 C 55.01419067382813 0.6740577220916748 59.32994079589844 7.70060250943061e-06 63.64829254150391 7.70060250943061e-06 C 67.96646118164063 7.70060250943061e-06 72.28221130371094 0.6740577220916748 76.47528839111328 2.003357648849487 C 80.56198883056641 3.298624277114868 84.58164215087891 5.231841087341309 88.42285919189453 7.748774528503418 C 92.19393920898438 10.2199239730835 95.83165740966797 13.2792911529541 99.23409271240234 16.84014129638672 C 102.6042251586914 20.36730766296387 105.7734451293945 24.41805839538574 108.6540069580078 28.88100814819336 C 111.5340728759766 33.3429069519043 114.1489410400391 38.25255584716797 116.4260940551758 43.47404098510742 C 118.7246932983398 48.74490737915039 120.6989898681641 54.38029098510742 122.2943115234375 60.22330856323242 C 123.9188232421875 66.17395782470703 125.1667556762695 72.40099334716797 126.0028762817383 78.73236083984375 C 126.8608932495117 85.22870635986328 127.2960586547852 91.91492462158203 127.2960586547852 98.60472106933594 C 127.2960586547852 99.62154388427734 127.2858734130859 100.6542434692383 127.2658233642578 101.6746215820313 L 127.2658233642578 101.6756896972656 Z"/>
  </g>
</svg>
