<svg xmlns="http://www.w3.org/2000/svg" xmlns:xlink="http://www.w3.org/1999/xlink" viewBox="0 0 200 200">
  <defs>
    <style>
      .cls-1 {
        clip-path: url(#clip-ic_);
      }

      .cls-2 {
        fill: #030104;
      }

      .cls-3 {
        fill: #fff;
      }
    </style>
    <clipPath id="clip-ic_">
      <rect width="200" height="200"/>
    </clipPath>
  </defs>
  <g id="ic_" class="cls-1">
    <rect class="cls-3" width="200" height="200"/>
    <g id="question-mark" transform="translate(0.999 1)">
      <path id="Path_55" data-name="Path 55" class="cls-2" d="M97.677.009A99,99,0,1,0,197.99,97.668,99.008,99.008,0,0,0,97.677.009ZM97.385,159.26l-.547-.009c-8.419-.25-14.355-6.452-14.116-14.747a14.074,14.074,0,0,1,14.456-14.071l.489.009c8.654.256,14.523,6.4,14.28,14.93C111.705,153.549,105.72,159.26,97.385,159.26ZM132.8,88.973c-1.98,2.813-6.334,6.306-11.82,10.58l-6.041,4.171c-3.316,2.578-5.318,5-6.069,7.391a15.3,15.3,0,0,0-.934,6.2l-.009.971H84.859l.067-1.952c.282-8.023.48-12.743,3.805-16.643,5.217-6.125,16.724-13.535,17.213-13.849a18.165,18.165,0,0,0,4.074-4.167c2.421-3.338,3.493-5.966,3.493-8.548a16.659,16.659,0,0,0-3.166-9.848c-2.021-2.847-5.86-4.289-11.413-4.289-5.507,0-9.278,1.748-11.533,5.333a21.415,21.415,0,0,0-3.493,11.514v.984H60.122l.043-1.027c.613-14.568,5.813-25.058,15.448-31.178,6.054-3.9,13.587-5.873,22.376-5.873,11.505,0,21.218,2.8,28.865,8.31C134.6,52.636,138.532,61,138.532,71.919A28.452,28.452,0,0,1,132.8,88.973Z" transform="translate(0 0)"/>
    </g>
  </g>
</svg>
