<svg xmlns="http://www.w3.org/2000/svg" viewBox="0 0 197.951 198">
  <defs>
    <style>
      .cls-1 {
        fill: #20C4F4;
      }
    </style>
  </defs>
  <g id="guitar" transform="translate(-0.065)">
    <g id="Group_197" data-name="Group 197" transform="translate(74.379 112.021)">
      <g id="Group_196" data-name="Group 196">
        <path id="Path_127" data-name="Path 127" class="cls-1" d="M202.148,291.369a5.811,5.811,0,1,0,0,8.218A5.792,5.792,0,0,0,202.148,291.369Z" transform="translate(-192.232 -289.67)"/>
      </g>
    </g>
    <g id="Group_199" data-name="Group 199" transform="translate(0.065)">
      <g id="Group_198" data-name="Group 198" transform="translate(0)">
        <path id="Path_128" data-name="Path 128" class="cls-1" d="M198.015,24.625,173.39,0,156.969,16.422l-8.214-8.214-8.2,8.2,8.214,8.214-8.217,8.217-8.214-8.214-8.2,8.2,8.214,8.214L95.282,78.109A36.422,36.422,0,0,0,46.127,95.3a5.9,5.9,0,0,1-4.826,3.25,45.768,45.768,0,0,0-28.347,77.381l8.24,8.241A45.41,45.41,0,0,0,53.633,198h.328A45.725,45.725,0,0,0,99.48,156.535a5.754,5.754,0,0,1,3.337-4.694,36.381,36.381,0,0,0,17.065-49.082l37.086-37.086,8.214,8.214,8.2-8.2-8.214-8.214,8.217-8.217,8.214,8.214,8.2-8.2-8.214-8.214ZM63.769,158.878,39.137,134.246l8.2-8.2,24.632,24.632ZM92.5,130.141a17.413,17.413,0,1,1,0-24.625A17.357,17.357,0,0,1,92.5,130.141Z" transform="translate(-0.065)"/>
      </g>
    </g>
  </g>
</svg>
