<svg xmlns="http://www.w3.org/2000/svg" xmlns:xlink="http://www.w3.org/1999/xlink" viewBox="0 0 200 200">
  <defs>
    <style>
      .cls-1 {
        clip-path: url(#clip-ic_);
      }

      .cls-2 {
        fill: #20C4F4;
      }

      .cls-3 {
        fill: #fff;
      }
    </style>
    <clipPath id="clip-ic_">
      <rect width="200" height="200"/>
    </clipPath>
  </defs>
  <g id="ic_" class="cls-1">
    <rect class="cls-3" width="200" height="200"/>
    <g id="mobile-phone" transform="translate(41 1)">
      <path id="Path_7" data-name="Path 7" class="cls-2" d="M186.01,5.879A19.016,19.016,0,0,0,172.089,0h-79.2A19.028,19.028,0,0,0,78.969,5.879,19.022,19.022,0,0,0,73.09,19.8V178.2a20.079,20.079,0,0,0,19.8,19.8h79.2a20.081,20.081,0,0,0,19.8-19.8V19.8A19.016,19.016,0,0,0,186.01,5.879ZM120.115,19.8h24.752a2.187,2.187,0,0,1,2.473,2.475,2.187,2.187,0,0,1-2.473,2.476H120.115a2.188,2.188,0,0,1-2.475-2.476A2.187,2.187,0,0,1,120.115,19.8ZM141.233,186.94a12.328,12.328,0,1,1,3.634-8.74A11.929,11.929,0,0,1,141.233,186.94Zm35.809-33.489a5.015,5.015,0,0,1-4.949,4.947h-79.2a5.013,5.013,0,0,1-4.949-4.947V44.552a5.02,5.02,0,0,1,4.949-4.95h79.2a5.018,5.018,0,0,1,4.95,4.95v108.9h0Z" transform="translate(-73.09)"/>
    </g>
  </g>
</svg>
