<svg xmlns="http://www.w3.org/2000/svg" xmlns:xlink="http://www.w3.org/1999/xlink" viewBox="0 0 200 200">
  <defs>
    <style>
      .cls-1 {
        clip-path: url(#clip-ic_);
      }

      .cls-2 {
        fill: #fff;
      }
    </style>
    <clipPath id="clip-ic_">
      <rect width="200" height="200"/>
    </clipPath>
  </defs>
  <g id="ic_" class="cls-1">
    <rect class="cls-2" width="200" height="200"/>
    <g id="invisible" transform="translate(1 -17.053)">
      <g id="Group_187" data-name="Group 187" transform="translate(0 32.053)">
        <g id="Group_186" data-name="Group 186" transform="translate(0 0)">
          <path id="Path_114" data-name="Path 114" d="M231.147,160.188l28.343,28.344.135-1.485a27.015,27.015,0,0,0-26.994-26.994Z" transform="translate(-133.654 -106.065)"/>
          <path id="Path_115" data-name="Path 115" d="M185.511,86.549a45.006,45.006,0,0,1,44.99,44.99,44.292,44.292,0,0,1-3.194,16.421l26.319,26.319a106.863,106.863,0,0,0,30.908-42.74,106.478,106.478,0,0,0-99.022-67.485,105.23,105.23,0,0,0-35.857,6.3l19.435,19.39A45.214,45.214,0,0,1,185.511,86.549Z" transform="translate(-86.534 -50.557)"/>
          <path id="Path_116" data-name="Path 116" d="M9,43.525,29.513,64.041l4.094,4.094A106.574,106.574,0,0,0,0,113.034a106.417,106.417,0,0,0,98.977,67.484,105.5,105.5,0,0,0,39.456-7.6l3.824,3.824,26.229,26.274,11.472-11.427L20.47,32.053ZM58.757,93.239l13.9,13.9a28.512,28.512,0,0,0-.675,5.894,27.015,27.015,0,0,0,26.994,26.994,27.737,27.737,0,0,0,5.849-.675l13.9,13.9a44.262,44.262,0,0,1-19.751,4.769A44.7,44.7,0,0,1,58.757,93.239Z" transform="translate(0 -32.053)"/>
        </g>
      </g>
    </g>
  </g>
</svg>
