<svg id="repeat" xmlns="http://www.w3.org/2000/svg" viewBox="0 0 198 191.999">
  <g id="Group_37" data-name="Group 37" transform="translate(0 0)">
    <path id="Path_26" data-name="Path 26" d="M199.971,38.5,154.726,8.057a3.714,3.714,0,0,0-5.782,3.073V27.587H20.04A14,14,0,0,0,6.05,41.577v74.358H34.03V55.607H148.9V72.1a3.7,3.7,0,0,0,5.782,3.073L199.931,44.69A3.721,3.721,0,0,0,199.971,38.5Z" transform="translate(-3.604 -7.421)"/>
    <path id="Path_27" data-name="Path 27" d="M167.578,274.121H52.706V257.665a3.7,3.7,0,0,0-5.782-3.073L1.638,285.038a3.74,3.74,0,0,0,0,6.186l45.246,30.487a3.714,3.714,0,0,0,5.782-3.073v-16.5H181.528a14,14,0,0,0,13.99-13.99V213.794h-27.98v60.327Z" transform="translate(0 -130.349)"/>
  </g>
</svg>
