<svg xmlns="http://www.w3.org/2000/svg" viewBox="0 0 198 165.39">
  <defs>
    <style>
      .cls-1 {
        fill: #20C4F4;
      }
    </style>
  </defs>
  <g id="praying-hands" transform="translate(0 -40.547)">
    <path id="Path_144" data-name="Path 144" class="cls-1" d="M87.266,100.278a11.914,11.914,0,0,0-15.238,7.191L64.9,127.34,64.185,115.1l22.541-62.61a8.914,8.914,0,0,0-16.344-7.039L38.774,108.01a10.209,10.209,0,0,0-1.075,4.537l.167,47.079L8.821,174.876a16.472,16.472,0,1,0,15.314,29.169l53.685-28.19,1.23-.644a13.633,13.633,0,0,0,7.046-9.755L94.987,113.5A11.918,11.918,0,0,0,87.266,100.278Z" transform="translate(0 0)"/>
    <path id="Path_145" data-name="Path 145" class="cls-1" d="M342.086,174.876l-29.046-15.25.167-47.079a10.209,10.209,0,0,0-1.075-4.537L280.525,45.445a8.914,8.914,0,0,0-16.344,7.039l22.541,62.61-.714,12.245-7.129-19.871a11.915,11.915,0,0,0-22.96,6.03l8.893,51.957a13.632,13.632,0,0,0,7.046,9.755l1.23.644,53.685,28.19a16.472,16.472,0,1,0,15.314-29.169Z" transform="translate(-152.907 0)"/>
  </g>
</svg>
