<svg xmlns="http://www.w3.org/2000/svg" xmlns:xlink="http://www.w3.org/1999/xlink" viewBox="0 0 200 200">
  <defs>
    <style>
      .cls-1 {
        clip-path: url(#clip-ic_);
      }

      .cls-2 {
        fill-rule: evenodd;
      }

      .cls-3 {
        fill: #fff;
      }
    </style>
    <clipPath id="clip-ic_">
      <rect width="200" height="200"/>
    </clipPath>
  </defs>
  <g id="ic_" class="cls-1">
    <rect class="cls-3" width="200" height="200"/>
    <g id="settings-work-tool" transform="translate(0.997 1)">
      <g id="Group_90" data-name="Group 90" transform="translate(0.003 0)">
        <path id="Path_54" data-name="Path 54" class="cls-2" d="M197.378,88.007c-.313-2.783-3.558-4.875-6.364-4.875a21.86,21.86,0,0,1-14.963-38.047,5.5,5.5,0,0,0,.6-7.465,97.965,97.965,0,0,0-15.684-15.839,5.51,5.51,0,0,0-7.524.608,22.818,22.818,0,0,1-24.691,5.547A21.99,21.99,0,0,1,115.381,6.442,5.492,5.492,0,0,0,110.522.659,98.838,98.838,0,0,0,88.25.6a5.509,5.509,0,0,0-4.9,5.665A22.027,22.027,0,0,1,69.792,27.388a22.88,22.88,0,0,1-24.507-5.58,5.521,5.521,0,0,0-7.471-.628A98.334,98.334,0,0,0,21.8,37.014a5.507,5.507,0,0,0,.591,7.525,21.938,21.938,0,0,1,5.536,24.7C24.507,77.378,16.057,82.622,6.384,82.622a5.382,5.382,0,0,0-5.718,4.86A99.174,99.174,0,0,0,.623,110c.311,2.8,3.655,4.868,6.492,4.868a21.712,21.712,0,0,1,20.37,13.566,22.014,22.014,0,0,1-5.536,24.481,5.5,5.5,0,0,0-.6,7.46,98.32,98.32,0,0,0,15.662,15.845,5.505,5.505,0,0,0,7.535-.6c5.923-6.552,16.522-8.976,24.68-5.552a21.955,21.955,0,0,1,13.394,21.487,5.5,5.5,0,0,0,4.859,5.783,98.529,98.529,0,0,0,22.273.06,5.51,5.51,0,0,0,4.9-5.67A22,22,0,0,1,128.2,170.617a22.846,22.846,0,0,1,24.518,5.578,5.532,5.532,0,0,0,7.472.625A98.562,98.562,0,0,0,176.2,160.985a5.5,5.5,0,0,0-.592-7.524,21.937,21.937,0,0,1-5.547-24.7,22.164,22.164,0,0,1,20.253-13.421l1.224.032a5.511,5.511,0,0,0,5.794-4.853A99.088,99.088,0,0,0,197.378,88.007ZM99.157,132.232A33.022,33.022,0,1,1,132.179,99.21,33.058,33.058,0,0,1,99.157,132.232Z" transform="translate(-0.003 0)"/>
      </g>
    </g>
  </g>
</svg>
