<svg xmlns="http://www.w3.org/2000/svg" xmlns:xlink="http://www.w3.org/1999/xlink" viewBox="0 0 200 200">
  <defs>
    <style>
      .cls-1 {
        clip-path: url(#clip-ic_);
      }

      .cls-2 {
        fill: #20C4F4;
      }

      .cls-3 {
        fill: #fff;
      }
    </style>
    <clipPath id="clip-ic_">
      <rect width="200" height="200"/>
    </clipPath>
  </defs>
  <g id="ic_" class="cls-1">
    <rect class="cls-3" width="200" height="200"/>
    <path id="doc-investments" class="cls-2" d="M142.563,0H16.971a12.413,12.413,0,0,0-12.4,12.4V182.628a12.413,12.413,0,0,0,12.4,12.4H142.563a12.413,12.413,0,0,0,12.4-12.4V12.4A12.415,12.415,0,0,0,142.563,0Zm-11.3,158.444H27.579a5.219,5.219,0,1,1,0-10.437H131.258a5.219,5.219,0,1,1,0,10.437Zm-108.9-30.269a5.219,5.219,0,0,1,5.219-5.219H84.223a5.219,5.219,0,1,1,0,10.437H27.579A5.219,5.219,0,0,1,22.361,128.175Zm108.9-19.831H27.579a5.219,5.219,0,0,1,0-10.437H131.258a5.219,5.219,0,0,1,0,10.437ZM22.361,78.075a5.219,5.219,0,0,1,5.219-5.219H110.39a5.219,5.219,0,1,1,0,10.437H27.579A5.219,5.219,0,0,1,22.361,78.075Zm108.9-19.831H27.579a5.219,5.219,0,0,1,0-10.437H131.258a5.219,5.219,0,0,1,0,10.437Zm0-25.05H27.579a5.219,5.219,0,0,1,0-10.437H131.258a5.219,5.219,0,0,1,0,10.437Zm58.8,19.4V178.885a5.219,5.219,0,0,1-5.219,5.219H174.052a5.219,5.219,0,0,1-5.219-5.219V52.591c0-.028.008-.054.008-.082a5.178,5.178,0,0,1,.091-.929l.006-.031,0-.017,5.383-27.264a5.218,5.218,0,0,1,10.239,0l5.384,27.264,0,.017.006.031a5.287,5.287,0,0,1,.091.929C190.048,52.537,190.055,52.563,190.055,52.591Z" transform="translate(2.429 2)"/>
  </g>
</svg>
