<svg xmlns="http://www.w3.org/2000/svg" xmlns:xlink="http://www.w3.org/1999/xlink" viewBox="0 0 200 200">
  <defs>
    <style>
      .cls-1 {
        clip-path: url(#clip-ic_);
      }

      .cls-2 {
        fill: #fff;
      }
    </style>
    <clipPath id="clip-ic_">
      <rect width="200" height="200"/>
    </clipPath>
  </defs>
  <g id="ic_" class="cls-1">
    <rect class="cls-2" width="200" height="200"/>
    <path id="doc-investments" d="M144.666,0H17.16A12.6,12.6,0,0,0,4.571,12.589V185.411A12.6,12.6,0,0,0,17.16,198H144.666a12.6,12.6,0,0,0,12.589-12.589V12.589A12.6,12.6,0,0,0,144.666,0ZM133.189,160.859H27.93a5.3,5.3,0,0,1,0-10.6H133.189a5.3,5.3,0,0,1,0,10.6ZM22.632,130.129a5.3,5.3,0,0,1,5.3-5.3H85.437a5.3,5.3,0,1,1,0,10.6H27.93A5.3,5.3,0,0,1,22.632,130.129ZM133.189,110H27.93a5.3,5.3,0,0,1,0-10.6H133.189a5.3,5.3,0,0,1,0,10.6ZM22.632,79.265a5.3,5.3,0,0,1,5.3-5.3H112a5.3,5.3,0,0,1,0,10.6H27.93A5.3,5.3,0,0,1,22.632,79.265ZM133.189,59.132H27.93a5.3,5.3,0,0,1,0-10.6H133.189a5.3,5.3,0,0,1,0,10.6Zm0-25.432H27.93a5.3,5.3,0,0,1,0-10.6H133.189a5.3,5.3,0,0,1,0,10.6Zm59.694,19.693V181.611a5.3,5.3,0,0,1-5.3,5.3H176.635a5.3,5.3,0,0,1-5.3-5.3V53.393c0-.029.008-.055.008-.084a5.257,5.257,0,0,1,.092-.943l.006-.032,0-.017,5.465-27.679a5.3,5.3,0,0,1,10.4,0l5.466,27.679,0,.017.006.032a5.366,5.366,0,0,1,.092.943C192.875,53.338,192.883,53.364,192.883,53.393Z" transform="translate(1.429 1)"/>
  </g>
</svg>
