<svg id="user-01" xmlns="http://www.w3.org/2000/svg" viewBox="0 0 197.94 198">
  <defs>
    <style>
      .cls-1 {
        fill: #20C4F4;
      }
    </style>
  </defs>
  <path id="Path_2" data-name="Path 2" class="cls-1" d="M125.584,110.609A52.824,52.824,0,1,0,72.76,57.782,52.824,52.824,0,0,0,125.584,110.609Z" transform="translate(-26.501 -4.96)"/>
  <path id="Path_3" data-name="Path 3" class="cls-1" d="M143.047,163.55h-2.881c-.259,0-.526.259-.785.259h-.259c-.526.259-.785.526-1.311.785a58.436,58.436,0,0,1-67.474,0,5.715,5.715,0,0,0-1.311-.785h-.259c-.259,0-.526-.259-1.044-.259H64.855A76.745,76.745,0,0,0,5,238.868v7.844a6.472,6.472,0,0,0,6.506,6.574H196.4a6.472,6.472,0,0,0,6.54-6.54v-7.878A76.957,76.957,0,0,0,143.047,163.55Z" transform="translate(-4.998 -55.286)"/>
</svg>
