<svg id="facetime-button" xmlns="http://www.w3.org/2000/svg" viewBox="0 0 198 141.428">
  <path id="Path_23" data-name="Path 23" d="M193.69,77.177a7.692,7.692,0,0,0-2.763-.552,6.569,6.569,0,0,0-4.972,2.1l-44.528,44.418V104.912A31.877,31.877,0,0,0,109.6,73.09H31.821A30.655,30.655,0,0,0,9.335,82.426,30.654,30.654,0,0,0,0,104.912V182.7a30.65,30.65,0,0,0,9.336,22.484,30.653,30.653,0,0,0,22.485,9.337h77.785a31.878,31.878,0,0,0,31.822-31.82V164.354l44.528,44.529a6.57,6.57,0,0,0,4.972,2.1,7.712,7.712,0,0,0,2.763-.551,6.6,6.6,0,0,0,4.31-6.519V83.7A6.608,6.608,0,0,0,193.69,77.177Z" transform="translate(0 -73.09)"/>
</svg>
